<svg xmlns="http://www.w3.org/2000/svg" viewBox="0 0 917.45 647.06"><defs><style>.cls-1{isolation:isolate;}.cls-2,.cls-32{opacity:0.79;}.cls-15,.cls-23,.cls-26,.cls-28,.cls-29,.cls-3,.cls-4,.cls-43,.cls-7{fill:none;stroke-linecap:round;stroke-linejoin:round;}.cls-3{stroke:#dbba95;}.cls-26,.cls-3{stroke-width:6px;}.cls-23,.cls-26,.cls-28,.cls-4,.cls-43,.cls-7{stroke:#1b3242;}.cls-4{stroke-width:14px;}.cls-5{fill:#c3f3f7;}.cls-6{fill:#93c4c6;}.cls-15,.cls-29,.cls-7{stroke-width:10px;}.cls-8{fill:#f9263b;}.cls-9{fill:#ef3946;}.cls-10{fill:#fcfcfc;opacity:0.64;mix-blend-mode:overlay;}.cls-11{fill:#fff;}.cls-12{fill:#d12845;}.cls-13{fill:#ff485e;}.cls-14,.cls-16{fill:#7bb448;mix-blend-mode:color-burn;}.cls-14{opacity:0.36;}.cls-15{stroke:#303030;}.cls-16{opacity:0.29;}.cls-17{fill:#303030;}.cls-18,.cls-19{fill:#82e086;}.cls-19{opacity:0.37;}.cls-19,.cls-32,.cls-42{mix-blend-mode:screen;}.cls-20{fill:#ccc;opacity:0.83;}.cls-20,.cls-33{mix-blend-mode:multiply;}.cls-21{fill:#1ac7ce;}.cls-22{fill:#31afaf;}.cls-23{stroke-width:5px;}.cls-24{fill:#1b3242;}.cls-25{fill:#f34c6a;}.cls-27{fill:#ffd55c;}.cls-28{stroke-width:8px;}.cls-29{stroke:#1d2f3d;}.cls-30{fill:#f7f7f7;}.cls-31{fill:#e8ba8b;}.cls-32,.cls-33,.cls-41,.cls-42{fill:#995d45;}.cls-33{opacity:0.35;}.cls-34{fill:#474747;opacity:0.31;mix-blend-mode:darken;}.cls-35{fill:#ff433e;}.cls-36{fill:#6cbc96;}.cls-37{fill:#f4ba7a;}.cls-38{fill:#5492a8;}.cls-39{fill:#934d84;}.cls-40{fill:#18c6cd;}.cls-42{opacity:0.82;}.cls-43{stroke-width:11px;}</style></defs><title>empty-seat</title><g class="cls-1"><g id="Layer_1" data-name="Layer 1"><g class="cls-2"><polyline class="cls-3" points="247.33 454.92 247.33 485.85 185.47 485.85"/><polyline class="cls-3" points="309.19 485.85 247.33 485.85 247.33 454.92"/><rect class="cls-3" x="216.4" y="485.85" width="61.86" height="30.93"/><polyline class="cls-3" points="264.91 547.71 247.33 547.71 247.33 516.78 309.19 516.78"/><polyline class="cls-3" points="185.47 516.78 247.33 516.78 247.33 547.71 197.17 547.71"/><polyline class="cls-3" points="164.38 485.85 216.4 485.85 216.4 516.78 185.47 516.78"/><polyline class="cls-3" points="322.9 516.78 278.26 516.78 278.26 485.85 299.71 485.85"/></g><g class="cls-2"><polyline class="cls-3" points="831.51 282 831.51 312.93 893.37 312.93"/><polyline class="cls-3" points="769.64 312.93 831.51 312.93 831.51 282"/><rect class="cls-3" x="800.57" y="312.93" width="61.86" height="30.93" transform="translate(1663.01 656.79) rotate(-180)"/><polyline class="cls-3" points="813.93 374.79 831.51 374.79 831.51 343.86 769.64 343.86"/><polyline class="cls-3" points="893.37 343.86 831.51 343.86 831.51 374.79 854.69 374.79"/><polyline class="cls-3" points="914.46 312.93 862.44 312.93 862.44 343.86 893.37 343.86"/><polyline class="cls-3" points="755.93 343.86 800.58 343.86 800.58 312.93 779.13 312.93"/></g><g class="cls-2"><polyline class="cls-3" points="85.95 292.95 85.95 262.02 24.09 262.02"/><polyline class="cls-3" points="147.81 262.02 85.95 262.02 85.95 292.95"/><rect class="cls-3" x="55.02" y="231.09" width="61.86" height="30.93"/><polyline class="cls-3" points="103.53 200.16 85.95 200.16 85.95 231.09 147.81 231.09"/><polyline class="cls-3" points="24.09 231.09 85.95 231.09 85.95 200.16 35.79 200.16"/><polyline class="cls-3" points="3 262.02 55.02 262.02 55.02 231.09 24.09 231.09"/><polyline class="cls-3" points="161.52 231.09 116.88 231.09 116.88 262.02 138.32 262.02"/></g><line class="cls-4" x1="157.23" y1="580.48" x2="157.23" y2="205.42"/><rect class="cls-5" x="374.11" y="493.23" width="21.85" height="90.25"/><rect class="cls-6" x="374.11" y="493.23" width="21.85" height="26.59"/><rect class="cls-7" x="374.11" y="493.23" width="21.85" height="90.25"/><path class="cls-8" d="M431.82,249.56H338.24a57.38,57.38,0,0,0-42.48,18.68c-23.63,26-38.3,62.22-38.3,102.3A159,159,0,0,0,264,415.75H506.09a159.37,159.37,0,0,0,6.51-45.21c0-40.08-14.66-76.3-38.29-102.3A57.4,57.4,0,0,0,431.82,249.56Z"/><path class="cls-9" d="M431.82,249.56H338.24a57.38,57.38,0,0,0-42.48,18.68c-23.63,26-38.3,62.22-38.3,102.3A159,159,0,0,0,264,415.75H506.09a159.37,159.37,0,0,0,6.51-45.21c0-40.08-14.66-76.3-38.29-102.3A57.4,57.4,0,0,0,431.82,249.56Z"/><path class="cls-10" d="M475.64,265.24a58.66,58.66,0,0,0-43.12-18.68h-95a58.63,58.63,0,0,0-43.12,18.68c-24,26-38.87,62.22-38.87,102.3a157,157,0,0,0,6.62,45.21h7.23A147,147,0,0,1,264,373.09c0-37.49,13.92-71.36,36.34-95.67A54.86,54.86,0,0,1,340.63,260h88.81a54.82,54.82,0,0,1,40.32,17.47c22.43,24.31,36.35,58.18,36.35,95.67a146.56,146.56,0,0,1-5.46,39.66h7.24a157,157,0,0,0,6.62-45.21C514.51,327.46,499.62,291.24,475.64,265.24Z"/><path class="cls-7" d="M431.82,249.56H338.24a57.38,57.38,0,0,0-42.48,18.68c-23.63,26-38.3,62.22-38.3,102.3A159,159,0,0,0,264,415.75H506.09a159.37,159.37,0,0,0,6.51-45.21c0-40.08-14.66-76.3-38.29-102.3A57.4,57.4,0,0,0,431.82,249.56Z"/><path class="cls-11" d="M219.1,353.37l42.13-17.51s19.29,10.2,39.3,30.21C321.47,387,322.68,404,322.68,404l-31.8,26.82Z"/><path class="cls-12" d="M219.1,353.37l42.13-17.51s19.29,10.2,39.3,30.21C321.47,387,322.68,404,322.68,404l-31.8,26.82Z"/><path class="cls-10" d="M228.41,362.68l42.13-17.51s16,8.46,33.95,25.07c-1.24-1.37-2.55-2.76-4-4.17-20-20-39.3-30.21-39.3-30.21L219.1,353.37l71.78,77.43.38-.32Z"/><path class="cls-7" d="M219.1,353.37l42.13-17.51s19.29,10.2,39.3,30.21C321.47,387,322.68,404,322.68,404l-31.8,26.82Z"/><path class="cls-12" d="M551.12,353.37,509,335.86s-19.29,10.2-39.3,30.21C448.75,387,447.55,404,447.55,404l31.79,26.82Z"/><path class="cls-10" d="M509,335.86s-18.76,9.93-38.48,29.4a172.21,172.21,0,0,1,27.13-19.05l42.14,17.51L478.36,430l1,.83,71.78-77.43Z"/><path class="cls-7" d="M551.12,353.37,509,335.86s-19.29,10.2-39.3,30.21C448.75,387,447.55,404,447.55,404l31.79,26.82Z"/><line class="cls-7" x1="835.19" y1="593.48" x2="849.19" y2="593.48"/><line class="cls-7" x1="866.19" y1="593.48" x2="873.19" y2="593.48"/><line class="cls-7" x1="525.19" y1="593.48" x2="819.19" y2="593.48"/><line class="cls-7" x1="59.19" y1="593.48" x2="510.82" y2="593.48"/><path class="cls-13" d="M450.11,395A337.05,337.05,0,0,1,385,401,336.94,336.94,0,0,1,320,395c-13.84,8.21-22.26,19.05-22.26,30.94,0,25.63,39.1,46.41,87.33,46.41S472.37,451.6,472.37,426C472.37,414.08,463.94,403.24,450.11,395Z"/><path class="cls-14" d="M385,441.38c-38.66,0-71.84-9.89-86.14-24A25.39,25.39,0,0,0,297.7,425c0,25.63,39.1,46.41,87.33,46.41S472.37,450.6,472.37,425a25.72,25.72,0,0,0-1.19-7.59C456.88,431.49,423.69,441.38,385,441.38Z"/><path class="cls-15" d="M450.11,395A337.05,337.05,0,0,1,385,401,336.94,336.94,0,0,1,320,395c-13.84,8.21-22.26,19.05-22.26,30.94,0,25.63,39.1,46.41,87.33,46.41S472.37,451.6,472.37,426C472.37,414.08,463.94,403.24,450.11,395Z"/><path class="cls-7" d="M450.11,395A337.05,337.05,0,0,1,385,401,336.94,336.94,0,0,1,320,395c-13.84,8.21-22.26,19.05-22.26,30.94,0,25.63,39.1,46.41,87.33,46.41S472.37,451.6,472.37,426C472.37,414.08,463.94,403.24,450.11,395Z"/><path class="cls-9" d="M385,452.51c-60.18,0-114.34-36.91-152.08-95.77a10.34,10.34,0,0,0-8.71-4.72h0a10.4,10.4,0,0,0-9.42,14.85c37.23,78,99.58,129.07,170.21,129.07s133-51.11,170.22-129.07A10.4,10.4,0,0,0,545.83,352h0a10.32,10.32,0,0,0-8.71,4.72C499.37,415.6,445.22,452.51,385,452.51Z"/><path class="cls-10" d="M385,463.28c63.57,0,121-42.64,161.93-111.18a10.54,10.54,0,0,0-1.13-.08,10.32,10.32,0,0,0-8.71,4.72c-37.75,58.86-91.9,95.77-152.09,95.77S270.69,415.6,233,356.74a10.34,10.34,0,0,0-8.71-4.72h0a10.36,10.36,0,0,0-1.13.08C264.07,420.64,321.47,463.28,385,463.28Z"/><path class="cls-16" d="M552.91,354.81c-.07.18-.13.37-.22.56C516,433.33,454.6,484.44,385,484.44s-131-51.11-167.65-129.07c-.09-.19-.15-.38-.23-.56a10.33,10.33,0,0,0-2.33,12.06c37.23,78,99.58,129.07,170.21,129.07s133-51.11,170.22-129.07A10.33,10.33,0,0,0,552.91,354.81Z"/><path class="cls-7" d="M385,452.51c-60.18,0-114.34-36.91-152.08-95.77a10.34,10.34,0,0,0-8.71-4.72h0a10.4,10.4,0,0,0-9.42,14.85c37.23,78,99.58,129.07,170.21,129.07s133-51.11,170.22-129.07A10.4,10.4,0,0,0,545.83,352h0a10.32,10.32,0,0,0-8.71,4.72C499.37,415.6,445.22,452.51,385,452.51Z"/><rect class="cls-17" x="315.02" y="582.81" width="140.02" height="10.67" rx="5.33"/><rect class="cls-7" x="315.02" y="582.81" width="140.02" height="10.67" rx="5.33"/><polygon class="cls-18" points="232.19 205.42 82.26 205.42 106.57 78.48 207.89 78.48 232.19 205.42"/><polygon class="cls-19" points="205.89 78.48 194.86 78.48 213.19 205.42 230.19 205.42 205.89 78.48"/><polygon class="cls-20" points="106.57 78.48 82.26 205.42 128.19 205.42 137.95 78.48 106.57 78.48"/><polygon class="cls-7" points="232.19 205.42 82.26 205.42 106.57 78.48 207.89 78.48 232.19 205.42"/><path class="cls-21" d="M130.73,567.48h53a26,26,0,0,1,26,26v0a0,0,0,0,1,0,0h-105a0,0,0,0,1,0,0v0a26,26,0,0,1,26-26Z"/><path class="cls-22" d="M156.06,567.48H130.73a26,26,0,0,0-26,26h25.33A26,26,0,0,1,156.06,567.48Z"/><path class="cls-15" d="M130.73,567.48h53a26,26,0,0,1,26,26v0a0,0,0,0,1,0,0h-105a0,0,0,0,1,0,0v0a26,26,0,0,1,26-26Z"/><path class="cls-15" d="M130.73,567.48h53a26,26,0,0,1,26,26v0a0,0,0,0,1,0,0h-105a0,0,0,0,1,0,0v0a26,26,0,0,1,26-26Z"/><path class="cls-7" d="M130.73,567.48h53a26,26,0,0,1,26,26v0a0,0,0,0,1,0,0h-105a0,0,0,0,1,0,0v0a26,26,0,0,1,26-26Z"/><line class="cls-23" x1="196.86" y1="205.42" x2="196.86" y2="291.98"/><rect class="cls-24" x="188.61" y="291.98" width="16.5" height="29.5" rx="5.58"/><rect class="cls-11" x="263.45" y="44.98" width="123.3" height="125.31"/><rect class="cls-7" x="263.45" y="44.98" width="123.3" height="125.31"/><rect class="cls-25" x="281.86" y="63.2" width="86.47" height="88.86" transform="translate(432.73 -217.46) rotate(90)"/><rect class="cls-26" x="281.86" y="63.2" width="86.47" height="88.86" transform="translate(432.73 -217.46) rotate(90)"/><rect class="cls-11" x="416.83" y="5" width="108.63" height="77.76"/><rect class="cls-7" x="416.83" y="5" width="108.63" height="77.76"/><rect class="cls-21" x="448.22" y="5.52" width="45.86" height="76.72" transform="translate(515.03 -427.27) rotate(90)"/><rect class="cls-11" x="416.83" y="116.19" width="79.57" height="104.54"/><rect class="cls-27" x="420.3" y="144.62" width="72.63" height="47.67" transform="translate(625.08 -288.16) rotate(90)"/><rect class="cls-26" x="448.22" y="5.52" width="45.86" height="76.72" transform="translate(515.03 -427.27) rotate(90)"/><rect class="cls-26" x="420.3" y="144.62" width="72.63" height="47.67" transform="translate(625.08 -288.16) rotate(90)"/><rect class="cls-7" x="416.83" y="116.19" width="79.57" height="104.54"/><circle class="cls-10" cx="382.17" cy="332.65" r="11.14"/><circle class="cls-28" cx="382.17" cy="332.65" r="11.14"/><line class="cls-29" x1="319.53" y1="642.06" x2="398.73" y2="642.06"/><line class="cls-29" x1="284.74" y1="642.06" x2="302.04" y2="642.06"/><rect class="cls-30" x="199.33" y="296.4" width="3.06" height="8" rx="1.53"/><rect class="cls-24" x="643.33" y="568.48" width="30" height="24"/><rect class="cls-7" x="643.33" y="568.48" width="30" height="24"/><rect class="cls-24" x="756.66" y="568.48" width="30" height="24"/><rect class="cls-7" x="756.66" y="568.48" width="30" height="24"/><rect class="cls-31" x="454.49" y="211.98" width="521" height="194" transform="translate(1023.97 -406.01) rotate(90)"/><rect class="cls-32" x="620.86" y="50.15" width="186.67" height="6"/><rect class="cls-33" x="617.19" y="556.98" width="194.8" height="12.5"/><rect class="cls-5" x="635.99" y="66.48" width="158" height="474"/><polygon class="cls-34" points="792.99 89.15 792.99 70.48 653.49 70.48 634.99 70.48 634.99 89.15 634.99 241.15 634.99 259.81 634.99 400.02 634.99 418.69 634.99 544.48 653.49 544.48 653.49 418.69 792.99 418.69 792.99 400.02 653.49 400.02 653.49 259.81 792.99 259.81 792.99 241.15 653.49 241.15 653.49 89.15 792.99 89.15"/><rect class="cls-7" x="454.49" y="211.98" width="521" height="194" transform="translate(1023.97 -406.01) rotate(90)"/><rect class="cls-15" x="635.99" y="382.48" width="158" height="158"/><rect class="cls-15" x="635.99" y="224.48" width="158" height="158"/><rect class="cls-15" x="635.99" y="66.48" width="158" height="158"/><rect class="cls-7" x="635.99" y="66.48" width="158" height="474"/><rect class="cls-35" x="765.99" y="107.83" width="28" height="111.5"/><rect class="cls-7" x="765.99" y="107.83" width="28" height="111.5"/><rect class="cls-35" x="696.29" y="312.46" width="26.54" height="111.5" transform="translate(341.35 1077.77) rotate(-90)"/><rect class="cls-7" x="696.29" y="312.46" width="26.54" height="111.5" transform="translate(341.35 1077.77) rotate(-90)"/><rect class="cls-36" x="710.97" y="285.92" width="26.54" height="111.5" transform="translate(382.58 1065.91) rotate(-90)"/><rect class="cls-7" x="710.97" y="285.92" width="26.54" height="111.5" transform="translate(382.58 1065.91) rotate(-90)"/><rect class="cls-35" x="699.18" y="261.79" width="22.13" height="111.5" transform="translate(392.7 1027.79) rotate(-90)"/><rect class="cls-7" x="699.18" y="261.79" width="22.13" height="111.5" transform="translate(392.7 1027.79) rotate(-90)"/><line class="cls-7" x1="765.99" y1="135.48" x2="793.99" y2="135.48"/><rect class="cls-37" x="742.19" y="115.98" width="23.8" height="103.35"/><rect class="cls-7" x="742.19" y="115.98" width="23.8" height="103.35"/><line class="cls-7" x1="742.19" y1="141.61" x2="765.99" y2="141.61"/><rect class="cls-38" x="725.3" y="421.37" width="25.16" height="111.5" transform="translate(171.59 -194.76) rotate(16.99)"/><rect class="cls-7" x="725.3" y="421.37" width="25.16" height="111.5" transform="translate(171.59 -194.76) rotate(16.99)"/><line class="cls-7" x1="734.05" y1="446.57" x2="758.11" y2="453.92"/><rect class="cls-39" x="701.99" y="428.15" width="21.38" height="103.35" transform="translate(171.28 -187.28) rotate(16.99)"/><rect class="cls-7" x="701.99" y="428.15" width="21.38" height="103.35" transform="translate(171.28 -187.28) rotate(16.99)"/><line class="cls-7" x1="710.07" y1="451.79" x2="730.52" y2="458.04"/><rect class="cls-35" x="751.37" y="426.32" width="21.38" height="105.6" transform="translate(173.23 -201.74) rotate(16.99)"/><rect class="cls-7" x="751.37" y="426.32" width="21.38" height="105.6" transform="translate(173.23 -201.74) rotate(16.99)"/><line class="cls-7" x1="759.61" y1="450.55" x2="780.06" y2="456.79"/><rect class="cls-40" x="695.8" y="121.66" width="22.4" height="97.26" transform="translate(179.84 -330.67) rotate(30)"/><rect class="cls-7" x="695.8" y="121.66" width="22.4" height="97.26" transform="translate(179.84 -330.67) rotate(30)"/><line class="cls-7" x1="709.56" y1="143.46" x2="728.95" y2="154.66"/><line class="cls-7" x1="697.94" y1="328.6" x2="697.94" y2="354.94"/><line class="cls-7" x1="679.53" y1="306.48" x2="679.53" y2="328.4"/><line class="cls-7" x1="682.44" y1="354.94" x2="682.44" y2="381.48"/><rect class="cls-31" x="635.99" y="224.15" width="158" height="17.33"/><rect class="cls-7" x="635.99" y="224.15" width="158" height="14.83"/><rect class="cls-41" x="635.99" y="381.48" width="158" height="17.33"/><rect class="cls-7" x="635.99" y="381.48" width="158" height="15"/><rect class="cls-31" x="634.99" y="388.98" width="159" height="151.5"/><rect class="cls-33" x="634.99" y="528.42" width="159" height="12.06"/><rect class="cls-42" x="634.99" y="392.79" width="159" height="7.24"/><rect class="cls-7" x="635.99" y="388.98" width="158" height="151.5"/><line class="cls-43" x1="758.38" y1="431.71" x2="758.38" y2="497.75"/></g></g></svg>