<svg width="19" height="22" viewBox="0 0 19 22" fill="none" xmlns="http://www.w3.org/2000/svg">
<path d="M9.18753 21.4376C10.6362 21.4376 11.8113 20.2625 11.8113 18.8126H6.56376C6.56376 20.2625 7.73886 21.4376 9.18753 21.4376ZM18.0219 15.2971C17.2295 14.4456 15.7467 13.1647 15.7467 8.96881C15.7467 5.7819 13.5122 3.23073 10.4992 2.60483V1.75006C10.4992 1.02531 9.91187 0.437561 9.18753 0.437561C8.46319 0.437561 7.87585 1.02531 7.87585 1.75006V2.60483C4.86284 3.23073 2.62831 5.7819 2.62831 8.96881C2.62831 13.1647 1.14559 14.4456 0.353173 15.2971C0.107079 15.5617 -0.00202242 15.8779 2.83577e-05 16.1876C0.00454008 16.8602 0.532411 17.5001 1.31663 17.5001H17.0584C17.8426 17.5001 18.3709 16.8602 18.375 16.1876C18.3771 15.8779 18.268 15.5613 18.0219 15.2971Z" fill="#10181E" fill-opacity="0.8"/>
</svg>
