<?xml version="1.0" encoding="utf-8"?>
<!-- Generator: Adobe Illustrator 24.3.0, SVG Export Plug-In . SVG Version: 6.00 Build 0)  -->
<svg version="1.1" id="Layer_1" xmlns="http://www.w3.org/2000/svg" xmlns:xlink="http://www.w3.org/1999/xlink" x="0px" y="0px"
	 viewBox="0 0 850.4 469.7" style="enable-background:new 0 0 850.4 469.7;" xml:space="preserve">
<style type="text/css">
	.st0{fill:#F0F0F0;}
	.st1{opacity:0.37;}
	.st2{fill:#4DAAB3;}
	.st3{fill:#DC4D65;}
	.st4{fill:#50B3B4;}
	.st5{fill:#B1C847;}
	.st6{fill:#F3BB45;}
	.st7{fill:#FFFFFF;}
	.st8{fill:#752E8A;}
	.st9{fill:#752D8B;}
	.st10{opacity:0.8;fill:#FFFFFF;}
	.st11{clip-path:url(#SVGID_2_);fill:url(#SVGID_3_);}
	.st12{clip-path:url(#SVGID_5_);fill:url(#SVGID_6_);}
	.st13{clip-path:url(#SVGID_8_);fill:url(#SVGID_9_);}
	.st14{clip-path:url(#SVGID_11_);fill:url(#SVGID_12_);}
	.st15{fill-rule:evenodd;clip-rule:evenodd;fill:#F15822;}
	.st16{clip-path:url(#SVGID_14_);fill:url(#SVGID_15_);}
	.st17{fill:url(#XMLID_2_);}
	.st18{fill:url(#XMLID_3_);}
	.st19{fill:url(#XMLID_4_);}
	.st20{fill:url(#XMLID_5_);}
	.st21{opacity:0.2;fill:#231F20;}
	.st22{fill:#262626;}
	.st23{display:none;}
	.st24{display:inline;fill:none;stroke:#777777;stroke-miterlimit:10;}
	.st25{fill:#E52648;}
	.st26{fill:#12A89D;}
	.st27{fill:#FDAF40;}
	.st28{fill:#808080;}
	.st29{fill:#333333;}
	.st30{fill:#C4C4C4;}
	.st31{fill:#FFFFFF;stroke:#ADADAD;stroke-width:0.5;stroke-miterlimit:10;}
	.st32{fill:url(#SVGID_16_);}
	.st33{fill:url(#SVGID_17_);}
	.st34{filter:url(#Adobe_OpacityMaskFilter);}
	.st35{filter:url(#Adobe_OpacityMaskFilter_1_);}
	.st36{mask:url(#SVGID_18_);fill:url(#SVGID_19_);}
	.st37{fill:url(#SVGID_20_);}
	.st38{filter:url(#Adobe_OpacityMaskFilter_2_);}
	.st39{filter:url(#Adobe_OpacityMaskFilter_3_);}
	.st40{mask:url(#SVGID_21_);fill:url(#SVGID_22_);}
	.st41{fill:url(#SVGID_23_);}
	.st42{filter:url(#Adobe_OpacityMaskFilter_4_);}
	.st43{filter:url(#Adobe_OpacityMaskFilter_5_);}
	.st44{mask:url(#SVGID_24_);fill:url(#SVGID_25_);}
	.st45{fill:url(#SVGID_26_);}
	.st46{filter:url(#Adobe_OpacityMaskFilter_6_);}
	.st47{filter:url(#Adobe_OpacityMaskFilter_7_);}
	.st48{mask:url(#SVGID_27_);fill:url(#SVGID_28_);}
	.st49{fill:url(#SVGID_29_);}
	.st50{filter:url(#Adobe_OpacityMaskFilter_8_);}
	.st51{filter:url(#Adobe_OpacityMaskFilter_9_);}
	.st52{mask:url(#SVGID_30_);fill:url(#SVGID_31_);}
	.st53{fill:url(#SVGID_32_);}
	.st54{filter:url(#Adobe_OpacityMaskFilter_10_);}
	.st55{filter:url(#Adobe_OpacityMaskFilter_11_);}
	.st56{mask:url(#SVGID_33_);fill:url(#SVGID_34_);}
	.st57{fill:url(#SVGID_35_);}
	.st58{fill:url(#SVGID_36_);}
	.st59{fill:url(#SVGID_37_);}
	.st60{fill:url(#SVGID_38_);}
	.st61{fill:url(#SVGID_39_);}
	.st62{fill:url(#SVGID_40_);}
	.st63{fill:url(#SVGID_41_);}
	.st64{fill:url(#SVGID_42_);}
	.st65{fill:url(#SVGID_43_);}
	.st66{fill:url(#SVGID_44_);}
	.st67{fill:url(#SVGID_45_);}
	.st68{fill:url(#SVGID_46_);}
	.st69{fill:url(#SVGID_47_);}
	.st70{fill:url(#SVGID_48_);}
	.st71{fill:url(#SVGID_49_);}
	.st72{fill:url(#SVGID_50_);}
	.st73{fill:url(#SVGID_51_);}
	.st74{filter:url(#Adobe_OpacityMaskFilter_12_);}
	.st75{filter:url(#Adobe_OpacityMaskFilter_13_);}
	.st76{mask:url(#SVGID_52_);fill:url(#SVGID_53_);}
	.st77{fill:url(#SVGID_54_);}
	.st78{filter:url(#Adobe_OpacityMaskFilter_14_);}
	.st79{filter:url(#Adobe_OpacityMaskFilter_15_);}
	.st80{mask:url(#SVGID_55_);fill:url(#SVGID_56_);}
	.st81{fill:url(#SVGID_57_);}
	.st82{filter:url(#Adobe_OpacityMaskFilter_16_);}
	.st83{filter:url(#Adobe_OpacityMaskFilter_17_);}
	.st84{mask:url(#SVGID_58_);fill:url(#SVGID_59_);}
	.st85{fill:url(#SVGID_60_);}
	.st86{filter:url(#Adobe_OpacityMaskFilter_18_);}
	.st87{filter:url(#Adobe_OpacityMaskFilter_19_);}
	.st88{mask:url(#SVGID_61_);fill:url(#SVGID_62_);}
	.st89{fill:url(#SVGID_63_);}
	.st90{filter:url(#Adobe_OpacityMaskFilter_20_);}
	.st91{filter:url(#Adobe_OpacityMaskFilter_21_);}
	.st92{mask:url(#SVGID_64_);fill:url(#SVGID_65_);}
	.st93{fill:url(#SVGID_66_);}
	.st94{filter:url(#Adobe_OpacityMaskFilter_22_);}
	.st95{filter:url(#Adobe_OpacityMaskFilter_23_);}
	.st96{mask:url(#SVGID_67_);fill:url(#SVGID_68_);}
	.st97{fill:url(#SVGID_69_);}
	.st98{filter:url(#Adobe_OpacityMaskFilter_24_);}
	.st99{filter:url(#Adobe_OpacityMaskFilter_25_);}
	.st100{mask:url(#SVGID_70_);fill:url(#SVGID_71_);}
	.st101{fill:url(#SVGID_72_);}
	.st102{filter:url(#Adobe_OpacityMaskFilter_26_);}
	.st103{filter:url(#Adobe_OpacityMaskFilter_27_);}
	.st104{mask:url(#SVGID_73_);fill:url(#SVGID_74_);}
	.st105{fill:url(#SVGID_75_);}
	.st106{filter:url(#Adobe_OpacityMaskFilter_28_);}
	.st107{filter:url(#Adobe_OpacityMaskFilter_29_);}
	.st108{mask:url(#SVGID_76_);fill:url(#SVGID_77_);}
	.st109{fill:url(#SVGID_78_);}
	.st110{filter:url(#Adobe_OpacityMaskFilter_30_);}
	.st111{filter:url(#Adobe_OpacityMaskFilter_31_);}
	.st112{mask:url(#SVGID_79_);fill:url(#SVGID_80_);}
	.st113{fill:url(#SVGID_81_);}
	.st114{filter:url(#Adobe_OpacityMaskFilter_32_);}
	.st115{filter:url(#Adobe_OpacityMaskFilter_33_);}
	.st116{mask:url(#SVGID_82_);fill:url(#SVGID_83_);}
	.st117{fill:url(#SVGID_84_);}
	.st118{filter:url(#Adobe_OpacityMaskFilter_34_);}
	.st119{filter:url(#Adobe_OpacityMaskFilter_35_);}
	.st120{mask:url(#SVGID_85_);fill:url(#SVGID_86_);}
	.st121{fill:url(#SVGID_87_);}
	.st122{filter:url(#Adobe_OpacityMaskFilter_36_);}
	.st123{filter:url(#Adobe_OpacityMaskFilter_37_);}
	.st124{mask:url(#SVGID_88_);fill:url(#SVGID_89_);}
	.st125{fill:url(#SVGID_90_);}
	.st126{filter:url(#Adobe_OpacityMaskFilter_38_);}
	.st127{filter:url(#Adobe_OpacityMaskFilter_39_);}
	.st128{mask:url(#SVGID_91_);fill:url(#SVGID_92_);}
	.st129{fill:url(#SVGID_93_);}
	.st130{filter:url(#Adobe_OpacityMaskFilter_40_);}
	.st131{filter:url(#Adobe_OpacityMaskFilter_41_);}
	.st132{mask:url(#SVGID_94_);fill:url(#SVGID_95_);}
	.st133{fill:url(#SVGID_96_);}
	.st134{filter:url(#Adobe_OpacityMaskFilter_42_);}
	.st135{filter:url(#Adobe_OpacityMaskFilter_43_);}
	.st136{mask:url(#SVGID_97_);fill:url(#SVGID_98_);}
	.st137{fill:url(#SVGID_99_);}
	.st138{filter:url(#Adobe_OpacityMaskFilter_44_);}
	.st139{filter:url(#Adobe_OpacityMaskFilter_45_);}
	.st140{mask:url(#SVGID_100_);fill:url(#SVGID_101_);}
	.st141{fill:url(#SVGID_102_);}
	.st142{filter:url(#Adobe_OpacityMaskFilter_46_);}
	.st143{filter:url(#Adobe_OpacityMaskFilter_47_);}
	.st144{mask:url(#SVGID_103_);fill:url(#SVGID_104_);}
	.st145{fill:url(#SVGID_105_);}
	.st146{filter:url(#Adobe_OpacityMaskFilter_48_);}
	.st147{filter:url(#Adobe_OpacityMaskFilter_49_);}
	.st148{mask:url(#SVGID_106_);fill:url(#SVGID_107_);}
	.st149{fill:url(#SVGID_108_);}
	.st150{filter:url(#Adobe_OpacityMaskFilter_50_);}
	.st151{filter:url(#Adobe_OpacityMaskFilter_51_);}
	.st152{mask:url(#SVGID_109_);fill:url(#SVGID_110_);}
	.st153{fill:url(#SVGID_111_);}
	.st154{filter:url(#Adobe_OpacityMaskFilter_52_);}
	.st155{filter:url(#Adobe_OpacityMaskFilter_53_);}
	.st156{mask:url(#SVGID_112_);fill:url(#SVGID_113_);}
	.st157{fill:url(#SVGID_114_);}
	.st158{filter:url(#Adobe_OpacityMaskFilter_54_);}
	.st159{filter:url(#Adobe_OpacityMaskFilter_55_);}
	.st160{mask:url(#SVGID_115_);fill:url(#SVGID_116_);}
	.st161{fill:url(#SVGID_117_);}
	.st162{filter:url(#Adobe_OpacityMaskFilter_56_);}
	.st163{filter:url(#Adobe_OpacityMaskFilter_57_);}
	.st164{mask:url(#SVGID_118_);fill:url(#SVGID_119_);}
	.st165{fill:url(#SVGID_120_);}
	.st166{filter:url(#Adobe_OpacityMaskFilter_58_);}
	.st167{filter:url(#Adobe_OpacityMaskFilter_59_);}
	.st168{mask:url(#SVGID_121_);fill:url(#SVGID_122_);}
	.st169{fill:url(#SVGID_123_);}
	.st170{filter:url(#Adobe_OpacityMaskFilter_60_);}
	.st171{filter:url(#Adobe_OpacityMaskFilter_61_);}
	.st172{mask:url(#SVGID_124_);fill:url(#SVGID_125_);}
	.st173{fill:url(#SVGID_126_);}
	.st174{filter:url(#Adobe_OpacityMaskFilter_62_);}
	.st175{filter:url(#Adobe_OpacityMaskFilter_63_);}
	.st176{mask:url(#SVGID_127_);fill:url(#SVGID_128_);}
	.st177{fill:url(#SVGID_129_);}
	.st178{filter:url(#Adobe_OpacityMaskFilter_64_);}
	.st179{filter:url(#Adobe_OpacityMaskFilter_65_);}
	.st180{mask:url(#SVGID_130_);fill:url(#SVGID_131_);}
	.st181{fill:url(#SVGID_132_);}
	.st182{filter:url(#Adobe_OpacityMaskFilter_66_);}
	.st183{filter:url(#Adobe_OpacityMaskFilter_67_);}
	.st184{mask:url(#SVGID_133_);fill:url(#SVGID_134_);}
	.st185{fill:url(#SVGID_135_);}
	.st186{filter:url(#Adobe_OpacityMaskFilter_68_);}
	.st187{filter:url(#Adobe_OpacityMaskFilter_69_);}
	.st188{mask:url(#SVGID_136_);fill:url(#SVGID_137_);}
	.st189{fill:url(#SVGID_138_);}
</style>
<g>
	<polyline class="st25" points="595,129.4 595,129.4 595,89.6 494.3,74.2 494.3,239 595,245.3 595,156.2 	"/>
	<g>
		<path class="st28" d="M357.3,406.3c-1.2-1.3-2.7-2.4-4.6-3.2c-1.9-0.8-4.1-1.2-6.6-1.2c-3.6,0-6.2,0.7-7.9,2
			c-1.7,1.4-2.5,3.2-2.5,5.6c0,1.2,0.2,2.2,0.7,3c0.4,0.8,1.1,1.5,2,2c0.9,0.6,2.1,1.1,3.5,1.5c1.4,0.4,3.1,0.8,5.1,1.3
			c2.2,0.5,4.2,1,5.9,1.6c1.7,0.6,3.2,1.3,4.5,2.2c1.2,0.9,2.2,1.9,2.8,3.1c0.7,1.2,1,2.8,1,4.6c0,1.9-0.4,3.5-1.1,4.9
			c-0.7,1.4-1.7,2.5-3.1,3.5c-1.3,0.9-2.9,1.6-4.7,2c-1.8,0.4-3.8,0.7-5.9,0.7c-6.3,0-11.8-2-16.4-5.9l2-3.3
			c0.7,0.8,1.6,1.5,2.6,2.2c1,0.7,2.1,1.3,3.4,1.8c1.2,0.5,2.6,0.9,4,1.2c1.4,0.3,2.9,0.4,4.5,0.4c3.3,0,5.8-0.6,7.6-1.8
			c1.8-1.2,2.7-2.9,2.7-5.3c0-1.3-0.3-2.3-0.8-3.2c-0.5-0.9-1.3-1.6-2.3-2.2s-2.3-1.2-3.9-1.6c-1.5-0.5-3.3-0.9-5.4-1.4
			c-2.1-0.5-4-1-5.6-1.6c-1.6-0.5-3-1.2-4.1-2c-1.1-0.8-1.9-1.8-2.5-2.9c-0.6-1.1-0.8-2.5-0.8-4.2c0-1.9,0.4-3.6,1.1-5
			c0.7-1.5,1.7-2.7,3-3.7c1.3-1,2.8-1.7,4.6-2.2c1.8-0.5,3.7-0.8,5.9-0.8c2.7,0,5.2,0.4,7.3,1.2c2.1,0.8,4.1,2,5.8,3.5L357.3,406.3z
			"/>
		<path class="st28" d="M412.1,398.7v40.9h-4v-19.1h-24.2v19.1h-4v-40.9h4v18.2h24.2v-18.2H412.1z"/>
		<path class="st28" d="M450.4,439.8c-2.8,0-5.4-0.6-7.8-1.8c-2.4-1.2-4.4-2.7-6.1-4.7c-1.7-1.9-3-4.2-3.9-6.6
			c-0.9-2.5-1.4-5-1.4-7.7c0-2.7,0.5-5.3,1.5-7.8c1-2.5,2.3-4.7,4.1-6.6c1.7-1.9,3.8-3.4,6.1-4.6c2.3-1.1,4.9-1.7,7.6-1.7
			c2.8,0,5.4,0.6,7.8,1.8c2.4,1.2,4.4,2.8,6,4.7c1.7,2,3,4.2,3.9,6.6c0.9,2.5,1.4,5,1.4,7.6c0,2.7-0.5,5.3-1.5,7.8
			c-1,2.5-2.3,4.7-4,6.6c-1.7,1.9-3.7,3.4-6.1,4.5C455.6,439.3,453.1,439.8,450.4,439.8z M435.2,419.1c0,2.2,0.4,4.4,1.1,6.4
			c0.7,2.1,1.8,3.9,3.1,5.5c1.3,1.6,2.9,2.9,4.8,3.8c1.8,0.9,3.9,1.4,6.2,1.4c2.3,0,4.4-0.5,6.3-1.5c1.9-1,3.5-2.3,4.8-3.9
			c1.3-1.6,2.3-3.4,3-5.5c0.7-2,1.1-4.1,1.1-6.2c0-2.2-0.4-4.4-1.1-6.4c-0.7-2.1-1.8-3.9-3.1-5.4c-1.3-1.6-2.9-2.8-4.8-3.8
			c-1.8-0.9-3.9-1.4-6.1-1.4c-2.3,0-4.4,0.5-6.3,1.5c-1.9,1-3.5,2.3-4.8,3.9c-1.3,1.6-2.3,3.4-3,5.5
			C435.6,414.9,435.2,417,435.2,419.1z"/>
		<path class="st28" d="M488.6,439.5v-40.9h16.9c1.8,0,3.4,0.4,4.9,1.1c1.5,0.7,2.8,1.7,3.8,2.9c1.1,1.2,1.9,2.6,2.5,4.1
			c0.6,1.5,0.9,3.1,0.9,4.7c0,1.7-0.3,3.3-0.9,4.9c-0.6,1.6-1.4,2.9-2.4,4.1c-1,1.2-2.3,2.1-3.7,2.9c-1.4,0.7-3,1.1-4.8,1.1h-13.2
			v15.1H488.6z M492.7,420.9h13.1c1.2,0,2.3-0.3,3.3-0.8s1.8-1.2,2.5-2.1c0.7-0.9,1.2-1.9,1.6-3c0.4-1.1,0.6-2.3,0.6-3.5
			c0-1.3-0.2-2.5-0.7-3.6c-0.4-1.1-1-2.1-1.8-3c-0.7-0.8-1.6-1.5-2.6-2c-1-0.5-2.1-0.7-3.2-0.7h-12.7V420.9z"/>
	</g>
	<g>
		<path class="st29" d="M77.8,362.6c-4,0-7.7-0.8-10.9-2.3c-3.3-1.5-6.1-3.6-8.4-6.1c-2.3-2.5-4.1-5.4-5.4-8.6
			c-1.3-3.2-1.9-6.5-1.9-10c0-3.5,0.7-6.8,2-10c1.3-3.2,3.2-6.1,5.6-8.5c2.4-2.5,5.3-4.4,8.5-5.9c3.3-1.5,6.9-2.2,10.8-2.2
			c4,0,7.7,0.8,10.9,2.3c3.3,1.5,6.1,3.6,8.4,6.1c2.3,2.5,4.1,5.4,5.4,8.6c1.3,3.2,1.9,6.5,1.9,9.9c0,3.5-0.7,6.8-2,10
			c-1.3,3.2-3.2,6-5.6,8.5c-2.4,2.5-5.2,4.4-8.5,5.9C85.3,361.9,81.7,362.6,77.8,362.6z M65.8,335.9c0,1.8,0.2,3.5,0.7,5.2
			c0.5,1.7,1.2,3.1,2.2,4.4c1,1.3,2.2,2.3,3.8,3.1c1.5,0.8,3.3,1.2,5.4,1.2c2.1,0,3.9-0.4,5.4-1.2c1.5-0.8,2.8-1.9,3.8-3.2
			c1-1.3,1.7-2.8,2.2-4.5c0.5-1.7,0.7-3.4,0.7-5.1c0-1.8-0.2-3.5-0.7-5.2c-0.5-1.7-1.3-3.1-2.3-4.4c-1-1.3-2.3-2.3-3.8-3
			c-1.5-0.8-3.3-1.2-5.3-1.2c-2.1,0-3.9,0.4-5.4,1.2c-1.5,0.8-2.8,1.8-3.8,3.2c-1,1.3-1.7,2.8-2.2,4.5
			C66.1,332.4,65.8,334.1,65.8,335.9z"/>
		<path class="st29" d="M163.7,362.2h-14.1v-22c0-1.9-0.4-3.3-1.3-4.2c-0.9-0.9-1.9-1.3-3-1.3c-1.2,0-2.5,0.5-3.8,1.6
			c-1.3,1-2.3,2.4-3,4v21.9h-14.1v-39.1h12.7v5.8c1.4-2.1,3.3-3.8,5.8-4.9c2.5-1.1,5.5-1.7,8.9-1.7c2.7,0,4.8,0.5,6.4,1.4
			c1.6,1,2.8,2.2,3.6,3.6c0.8,1.4,1.3,3,1.6,4.6c0.2,1.6,0.4,3.1,0.4,4.5V362.2z"/>
		<path class="st29" d="M185.1,307.9h14.1v38.7c0,3,1.2,4.5,3.6,4.5c0.6,0,1.2-0.1,1.9-0.3c0.7-0.2,1.3-0.5,1.9-0.8l1.8,10.4
			c-1.7,0.8-3.6,1.4-5.7,1.9c-2.1,0.4-4.1,0.7-6,0.7c-3.8,0-6.7-1-8.7-2.9c-2-1.9-3-4.7-3-8.4V307.9z"/>
		<path class="st29" d="M226.7,319.8v-11.9h14.1v11.9H226.7z M226.7,362.2v-39.1h14.1v39.1H226.7z"/>
		<path class="st29" d="M302.1,362.2H288v-22c0-1.9-0.4-3.3-1.3-4.2c-0.9-0.9-1.9-1.3-3-1.3c-1.2,0-2.5,0.5-3.8,1.6
			c-1.3,1-2.3,2.4-3,4v21.9h-14.1v-39.1h12.7v5.8c1.4-2.1,3.3-3.8,5.8-4.9c2.5-1.1,5.5-1.7,8.9-1.7c2.7,0,4.8,0.5,6.4,1.4
			c1.6,1,2.8,2.2,3.6,3.6c0.8,1.4,1.3,3,1.6,4.6c0.2,1.6,0.4,3.1,0.4,4.5V362.2z"/>
		<path class="st29" d="M343,362.9c-3.4,0-6.5-0.5-9.1-1.6c-2.7-1.1-4.9-2.5-6.7-4.3c-1.8-1.8-3.2-3.9-4.1-6.3
			c-0.9-2.4-1.4-4.9-1.4-7.5c0-2.8,0.5-5.5,1.4-8c0.9-2.5,2.3-4.7,4.1-6.6c1.8-1.9,4-3.4,6.7-4.5c2.6-1.1,5.7-1.7,9.3-1.7
			c3.5,0,6.5,0.6,9.2,1.7s4.9,2.6,6.7,4.5c1.8,1.9,3.2,4,4.1,6.5c0.9,2.5,1.4,5,1.4,7.7c0,0.7,0,1.5-0.1,2.3c-0.1,0.8-0.2,1.4-0.3,2
			h-27.4c0.1,2.1,0.9,3.6,2.3,4.5c1.4,0.9,2.9,1.4,4.5,1.4c1.5,0,3-0.3,4.3-1c1.4-0.7,2.3-1.7,2.7-2.9l12,3.4
			c-1.6,3.1-4,5.7-7.3,7.7C351.9,361.9,347.8,362.9,343,362.9z M349.3,338.5c-0.2-1.9-0.9-3.4-2.1-4.5c-1.1-1.1-2.6-1.6-4.4-1.6
			s-3.2,0.5-4.4,1.6c-1.1,1.1-1.8,2.6-2.1,4.5H349.3z"/>
		<path class="st29" d="M448.4,326.6c-1.5-0.9-3-1.7-4.6-2.4c-1.3-0.6-2.8-1.2-4.5-1.7c-1.7-0.5-3.3-0.8-4.9-0.8
			c-1.3,0-2.3,0.2-3.1,0.6c-0.8,0.4-1.2,1.1-1.2,2c0,0.7,0.2,1.3,0.7,1.7s1.1,0.9,1.9,1.2c0.8,0.4,1.9,0.7,3.1,1.1
			c1.2,0.3,2.6,0.8,4.1,1.3c2.4,0.7,4.6,1.6,6.6,2.5c2,0.9,3.6,1.9,5,3.2c1.4,1.2,2.5,2.7,3.2,4.4c0.7,1.7,1.1,3.8,1.1,6.3
			c0,3.2-0.6,5.8-1.7,8c-1.2,2.2-2.7,3.9-4.6,5.2c-1.9,1.3-4.1,2.2-6.5,2.8c-2.4,0.6-4.8,0.9-7.2,0.9c-1.9,0-3.9-0.1-5.9-0.4
			c-2-0.3-4.1-0.7-6.1-1.3c-2-0.5-3.9-1.2-5.8-1.9s-3.6-1.6-5.2-2.5l6.2-12.7c1.7,1.1,3.5,2.1,5.4,2.9c1.6,0.7,3.4,1.4,5.4,2
			c2,0.6,4.1,0.9,6.1,0.9c1.6,0,2.7-0.2,3.3-0.6c0.6-0.4,0.9-1,0.9-1.7c0-0.7-0.3-1.4-0.9-1.9c-0.6-0.5-1.5-1-2.6-1.4
			c-1.1-0.4-2.3-0.8-3.8-1.2c-1.4-0.4-2.9-0.9-4.5-1.4c-2.3-0.8-4.3-1.6-6-2.6c-1.7-0.9-3.1-2-4.2-3.1c-1.1-1.2-1.9-2.5-2.4-4
			c-0.5-1.5-0.8-3.2-0.8-5.1c0-2.9,0.5-5.5,1.6-7.7c1.1-2.2,2.5-4.1,4.3-5.6c1.8-1.5,3.9-2.6,6.3-3.4c2.4-0.8,4.8-1.2,7.5-1.2
			c1.9,0,3.8,0.2,5.6,0.6c1.8,0.4,3.6,0.8,5.3,1.4c1.7,0.6,3.3,1.2,4.8,1.9s2.8,1.3,4,1.9L448.4,326.6z"/>
		<path class="st29" d="M476.2,319.8v-11.9h14.1v11.9H476.2z M476.2,362.2v-39.1h14.1v39.1H476.2z"/>
		<path class="st29" d="M527.3,362.2c-2.5,0-4.8-0.5-6.9-1.5c-2.1-1-3.9-2.4-5.4-4.2c-1.5-1.8-2.6-3.8-3.5-6.2
			c-0.8-2.4-1.2-5-1.2-7.7c0-2.9,0.4-5.6,1.3-8.1c0.9-2.5,2.1-4.6,3.8-6.4c1.6-1.8,3.5-3.2,5.8-4.2c2.2-1,4.7-1.5,7.4-1.5
			c2.8,0,5.3,0.6,7.4,1.7c2.1,1.1,3.8,2.7,5.1,4.9v-5.8h12.3v35.5c0,3.1-0.6,5.8-1.7,8.3c-1.1,2.5-2.7,4.6-4.8,6.3
			c-2.1,1.7-4.6,3.1-7.5,4.1c-2.9,1-6.2,1.4-9.7,1.4c-4.2,0-7.8-0.6-10.9-1.9c-3.1-1.3-5.8-3.1-8.2-5.6l7.4-7.7
			c1.4,1.3,3.2,2.5,5.2,3.4c2,0.9,4.1,1.4,6.4,1.4c1.3,0,2.5-0.2,3.7-0.5c1.2-0.3,2.2-0.9,3.1-1.7c0.9-0.8,1.6-1.8,2.1-3
			c0.5-1.2,0.8-2.7,0.8-4.5v-2.5c-1.1,2.1-2.8,3.6-4.9,4.6C532.2,361.7,529.9,362.2,527.3,362.2z M532.4,351c1.4,0,2.7-0.3,3.8-1
			c1.1-0.7,2.1-1.7,3-3v-7c-0.7-1.8-1.7-3.2-3.1-4.2c-1.4-1-2.8-1.6-4.3-1.6c-1,0-1.9,0.2-2.8,0.7c-0.9,0.5-1.6,1.1-2.3,1.9
			c-0.6,0.8-1.1,1.7-1.5,2.7c-0.3,1.1-0.5,2.2-0.5,3.4c0,2.4,0.7,4.4,2.2,5.9C528.3,350.3,530.2,351,532.4,351z"/>
		<path class="st29" d="M614.6,362.2h-14.1v-22c0-1.9-0.4-3.3-1.3-4.2c-0.9-0.9-1.9-1.3-3-1.3c-1.2,0-2.5,0.5-3.8,1.6
			c-1.3,1-2.3,2.4-3,4v21.9h-14.1v-39.1H588v5.8c1.4-2.1,3.3-3.8,5.8-4.9c2.5-1.1,5.5-1.7,8.9-1.7c2.7,0,4.8,0.5,6.4,1.4
			c1.6,1,2.8,2.2,3.6,3.6c0.8,1.4,1.3,3,1.6,4.6c0.2,1.6,0.4,3.1,0.4,4.5V362.2z"/>
		<path class="st29" d="M647.8,362.9c-1.9,0-3.7-0.3-5.4-1c-1.7-0.6-3.1-1.5-4.3-2.6c-1.2-1.1-2.2-2.4-2.9-4c-0.7-1.5-1-3.2-1-5
			c0-2,0.4-3.8,1.3-5.4c0.8-1.6,2-3,3.5-4.2s3.3-2.1,5.3-2.7c2.1-0.6,4.3-1,6.8-1c3.2,0,5.8,0.5,7.9,1.5v-1.2c0-1.8-0.5-3.2-1.6-4.1
			c-1.1-0.9-2.8-1.3-5.2-1.3c-2.2,0-4.3,0.4-6.2,1.1c-1.9,0.7-3.9,1.8-5.9,3.2l-4.1-8.8c5.2-3.3,11-5,17.6-5c6.2,0,11,1.4,14.4,4.2
			c3.4,2.8,5.1,6.9,5.1,12.5v7.6c0,1.3,0.2,2.3,0.6,2.8c0.4,0.5,1.1,0.8,2.1,0.9v11.9c-1.1,0.2-2.2,0.4-3.2,0.6
			c-1,0.1-1.9,0.2-2.7,0.2c-2.5,0-4.4-0.5-5.8-1.4c-1.3-0.9-2.2-2.3-2.6-4.1l-0.3-1.4c-1.7,2.2-3.7,3.9-6,5.1
			C652.8,362.3,650.4,362.9,647.8,362.9z M652,352.8c0.8,0,1.7-0.1,2.6-0.4c0.9-0.3,1.7-0.6,2.4-1.1c0.5-0.4,1-0.8,1.3-1.3
			c0.3-0.5,0.5-1,0.5-1.4v-2.9c-0.8-0.3-1.8-0.5-2.7-0.7c-1-0.2-1.9-0.3-2.7-0.3c-1.7,0-3.2,0.4-4.3,1.3c-1.1,0.8-1.7,1.9-1.7,3.2
			c0,1.1,0.4,2,1.3,2.7C649.6,352.5,650.7,352.8,652,352.8z"/>
		<path class="st29" d="M710.7,362.2c-2.5,0-4.8-0.5-6.9-1.5c-2.1-1-3.9-2.4-5.4-4.2c-1.5-1.8-2.6-3.8-3.5-6.2
			c-0.8-2.4-1.2-5-1.2-7.7c0-2.9,0.4-5.6,1.3-8.1c0.9-2.5,2.1-4.6,3.8-6.4c1.6-1.8,3.5-3.2,5.8-4.2c2.2-1,4.7-1.5,7.4-1.5
			c2.8,0,5.3,0.6,7.4,1.7c2.1,1.1,3.8,2.7,5.1,4.9v-5.8h12.3v35.5c0,3.1-0.6,5.8-1.7,8.3c-1.1,2.5-2.7,4.6-4.8,6.3
			c-2.1,1.7-4.6,3.1-7.5,4.1c-2.9,1-6.2,1.4-9.7,1.4c-4.2,0-7.8-0.6-10.9-1.9c-3.1-1.3-5.8-3.1-8.2-5.6l7.4-7.7
			c1.4,1.3,3.2,2.5,5.2,3.4c2,0.9,4.1,1.4,6.4,1.4c1.3,0,2.5-0.2,3.7-0.5c1.2-0.3,2.2-0.9,3.1-1.7c0.9-0.8,1.6-1.8,2.1-3
			c0.5-1.2,0.8-2.7,0.8-4.5v-2.5c-1.1,2.1-2.8,3.6-4.9,4.6C715.5,361.7,713.2,362.2,710.7,362.2z M715.7,351c1.4,0,2.7-0.3,3.8-1
			c1.1-0.7,2.1-1.7,3-3v-7c-0.7-1.8-1.7-3.2-3.1-4.2c-1.4-1-2.8-1.6-4.3-1.6c-1,0-1.9,0.2-2.8,0.7c-0.9,0.5-1.6,1.1-2.3,1.9
			c-0.6,0.8-1.1,1.7-1.5,2.7c-0.3,1.1-0.5,2.2-0.5,3.4c0,2.4,0.7,4.4,2.2,5.9C711.7,350.3,713.5,351,715.7,351z"/>
		<path class="st29" d="M777.9,362.9c-3.4,0-6.5-0.5-9.1-1.6c-2.7-1.1-4.9-2.5-6.7-4.3c-1.8-1.8-3.2-3.9-4.1-6.3
			c-0.9-2.4-1.4-4.9-1.4-7.5c0-2.8,0.5-5.5,1.4-8c0.9-2.5,2.3-4.7,4.1-6.6c1.8-1.9,4-3.4,6.7-4.5c2.6-1.1,5.7-1.7,9.3-1.7
			c3.5,0,6.5,0.6,9.2,1.7s4.9,2.6,6.7,4.5c1.8,1.9,3.2,4,4.1,6.5c0.9,2.5,1.4,5,1.4,7.7c0,0.7,0,1.5-0.1,2.3c-0.1,0.8-0.2,1.4-0.3,2
			h-27.4c0.1,2.1,0.9,3.6,2.3,4.5c1.4,0.9,2.9,1.4,4.5,1.4c1.5,0,3-0.3,4.3-1c1.4-0.7,2.3-1.7,2.7-2.9l12,3.4
			c-1.6,3.1-4,5.7-7.3,7.7C786.7,361.9,782.7,362.9,777.9,362.9z M784.1,338.5c-0.2-1.9-0.9-3.4-2.1-4.5c-1.1-1.1-2.6-1.6-4.4-1.6
			s-3.2,0.5-4.4,1.6c-1.1,1.1-1.8,2.6-2.1,4.5H784.1z"/>
	</g>
	<polygon class="st26" points="350.9,245.3 251.1,238.3 251.1,91.7 350.9,76.6 	"/>
	<g>
		<path class="st7" d="M230.6,167.7c0-30.6,23.8-53.2,56.3-53.2c32.3,0,56.3,22.5,56.3,53.2c0,30.7-23.9,53.2-56.3,53.2
			C254.4,220.9,230.6,198.3,230.6,167.7z M319.1,167.7c0-19.5-13.8-32.9-32.2-32.9c-18.4,0-32.2,13.4-32.2,32.9
			c0,19.5,13.8,32.9,32.2,32.9C305.3,200.6,319.1,187.3,319.1,167.7z"/>
	</g>
	<polygon class="st27" points="482.8,245.3 363.3,252.3 363.3,50 482.8,29.8 	"/>
	<g>
		<path class="st7" d="M417.7,253.9c-32.8,0-58.1-17.2-58.5-47h33.9c0.9,12.7,9.3,21,24,21c14.9,0,23.7-7.9,23.7-19.2
			c0-34.1-81.4-13.6-81.1-70.7c0-28.5,23.1-45.7,55.6-45.7c32.3,0,54.5,16.5,56.5,45h-34.8c-0.7-10.4-9-18.5-22.6-18.8
			c-12.4-0.5-21.7,5.7-21.7,18.5c0,31.6,80.9,14,80.9,69.6C473.6,231.5,453.7,253.9,417.7,253.9z"/>
	</g>
	<g>
		<path class="st7" d="M557.5,213.1c-26.1,0-46.1-14.2-46.1-37.3h22.9c0.9,10.7,8.4,19.3,23.2,19.3c15,0,23.4-8.1,23.4-19.1
			c0-31.5-69.2-11.1-69.2-59c0-22.9,18.2-37.1,44.8-37.1c24.9,0,42.5,13.1,44.4,35.4h-23.6c-0.7-8.8-8.4-16.9-21.9-17.2
			c-12.4-0.4-21.9,5.6-21.9,18.2c0,29.4,69,11.1,69,58.7C602.4,194.3,586.5,213.1,557.5,213.1z"/>
	</g>
</g>
</svg>
